#!OML:ASF E:\emotionWalksFemale\Project 1\Capture day 1\Session 1\Female1.ASF
:FULLY-SPECIFIED
:DEGREES
474
root 8.26606 15.1285 22.3306 174.504 -2.61661 -180.853
lowerback 7.44487 0.00256686 -6.24646
upperback -2.53007 -0.918743 -2.30505
thorax -6.8051 -0.295593 1.21287
lowerneck -6.39852 -2.60341 -8.74864
upperneck 16.8602 -4.6043 8.30342
head 6.53799 -2.44708 3.73961
rclavicle 3.47873e-015 -4.77083e-014
rhumerus -49.1387 -11.1617 -31.209
rradius 36.1669
rwrist 19.3178
rhand -0.230447 -55.2286
rfingers 7.12502
rthumb 25.3696 -83.5608
lclavicle 3.47873e-015 -4.77083e-014
lhumerus -8.44784 -10.3367 64.928
lradius 38.5892
lwrist -13.1835
lhand -5.36752 -28.1046
lfingers 7.12502
lthumb 20.4403 0.839518
rfemur -27.6316 3.21334 20.3989
rtibia 58.4223
rfoot -16.5021 -21.316
rtoes -6.07309
lfemur 11.395 -22.168 -33.6953
ltibia 21.0488
lfoot -25.4327 15.693
ltoes -32.8993
475
root 8.28413 15.1184 22.1624 174.409 -2.74766 -180.873
lowerback 7.65882 -0.163052 -6.44268
upperback -2.55775 -1.18225 -2.29961
thorax -6.9383 -0.412822 1.36461
lowerneck -6.49755 -2.45166 -8.69976
upperneck 16.9691 -4.41958 8.36361
head 6.57245 -2.35281 3.766
rclavicle 5.1684e-015 -3.4191e-014
rhumerus -49.7045 -10.9043 -29.7153
rradius 36.6728
rwrist 18.5815
rhand -0.688872 -55.7586
rfingers 7.12502
rthumb 24.9304 -84.1525
lclavicle 5.1684e-015 -3.4191e-014
lhumerus -7.52385 -10.3283 64.1748
lradius 39.9728
lwrist -11.4177
lhand -4.14346 -27.5017
lfingers 7.12502
lthumb 21.6162 1.31175
rfemur -27.8733 4.22631 20.2391
rtibia 55.3245
rfoot -17.1355 -22.3738
rtoes -4.89809
lfemur 12.7324 -22.0782 -33.9801
ltibia 20.0693
lfoot -25.0521 15.9763
ltoes -33.9747
476
root 8.30217 15.1029 21.9915 174.459 -2.67617 -180.691
lowerback 7.56711 -0.328502 -6.43593
upperback -2.5885 -1.38663 -2.22365
thorax -6.90161 -0.510052 1.4664
lowerneck -6.45138 -2.23988 -8.65107
upperneck 16.9216 -4.16195 8.49726
head 6.52588 -2.2196 3.82268
rclavicle -2.68359e-015 4.77083e-015
rhumerus -50.04 -10.9404 -28.2012
rradius 36.9364
rwrist 18.4794
rhand -0.906717 -56.4145
rfingers 7.12502
rthumb 24.7216 -84.8372
lclavicle -2.68359e-015 4.77083e-015
lhumerus -6.73941 -10.138 63.4539
lradius 41.419
lwrist -9.8754
lhand -2.41933 -27.2754
lfingers 7.12502
lthumb 23.2711 1.33829
rfemur -28.1404 5.55131 20.2308
rtibia 51.9697
rfoot -17.5475 -23.3949
rtoes -4.58597
lfemur 13.9796 -22.1707 -34.0625
ltibia 19.0667
lfoot -24.909 16.2733
ltoes -34.4136
477
root 8.31845 15.0849 21.8162 174.681 -2.47829 -180.413
lowerback 7.28306 -0.477118 -6.21147
upperback -2.71187 -1.53845 -2.16933
thorax -6.86074 -0.591004 1.4138
lowerneck -6.18702 -2.95962 -8.29618
upperneck 16.7724 -3.7025 8.10564
head 6.40186 -1.41889 3.73595
rclavicle 1.19271e-015 6.04305e-014
rhumerus -50.4536 -11.0173 -26.718
rradius 37.1492
rwrist 18.7053
rhand -1.19325 -56.5608
rfingers 7.12502
rthumb 24.447 -85.0208
lclavicle 1.19271e-015 6.04305e-014
lhumerus -5.92935 -10.0357 62.7809
lradius 42.7866
lwrist -8.31649
lhand -0.409023 -27.1361
lfingers 7.12502
lthumb 25.1985 1.22034
rfemur -28.4913 6.93342 20.2579
rtibia 48.4504
rfoot -17.0432 -24.3468
rtoes -6.09668
lfemur 15.0656 -22.3357 -34.0487
ltibia 18.1295
lfoot -24.6376 16.9924
ltoes -35.2012
478
root 8.33469 15.0706 21.6391 174.916 -2.26751 -180.185
lowerback 7.07932 -0.607631 -5.91954
upperback -2.83923 -1.67534 -2.17514
thorax -6.87568 -0.669247 1.25924
lowerneck -6.13632 -2.83085 -8.11972
upperneck 16.532 -3.53808 7.9602
head 6.29663 -1.35067 3.66744
rclavicle 8.94531e-015 -2.38542e-014
rhumerus -51.0068 -10.9341 -25.3811
rradius 37.555
rwrist 18.7174
rhand -2.05835 -55.5629
rfingers 7.12502
rthumb 23.6174 -84.1324
lclavicle 8.94531e-015 -2.38542e-014
lhumerus -5.21867 -9.85042 62.0826
lradius 44.267
lwrist -6.89614
lhand 0.553486 -26.9091
lfingers 7.12502
lthumb 26.1204 1.3144
rfemur -28.793 8.40925 20.1277
rtibia 44.8729
rfoot -16.5413 -24.9714
rtoes -6.31751
lfemur 16.1026 -22.4178 -34.0743
ltibia 17.2232
lfoot -24.4489 17.552
ltoes -35.4576
479
root 8.35149 15.0563 21.463 175.017 -2.2742 -180.118
lowerback 6.88952 -0.774396 -5.92865
upperback -2.75829 -1.87407 -2.14655
thorax -6.66548 -0.771529 1.31447
lowerneck -6.43792 -2.68241 -8.06585
upperneck 16.4091 -3.34617 7.98204
head 6.29294 -1.25912 3.67555
rclavicle 1.59028e-015 -1.35174e-014
rhumerus -51.4269 -11.0908 -23.9345
rradius 37.9265
rwrist 18.7738
rhand -2.70041 -54.6031
rfingers 7.12502
rthumb 23.0015 -83.2507
lclavicle 1.59028e-015 -1.35174e-014
lhumerus -4.5004 -9.71338 61.4119
lradius 45.8667
lwrist -5.44186
lhand 0.279426 -26.5806
lfingers 7.12502
lthumb 25.858 1.68141
rfemur -28.8988 9.91944 19.6878
rtibia 41.3814
rfoot -16.2617 -25.4832
rtoes -6.38068
lfemur 17.285 -22.3526 -34.2157
ltibia 16.2198
lfoot -24.5342 17.5024
ltoes -34.3824
480
root 8.36919 15.0351 21.2885 175.147 -2.26845 -179.947
lowerback 6.82809 -0.9434 -5.8332
upperback -2.82064 -2.0857 -2.11198
thorax -6.68391 -0.876774 1.32203
lowerneck -6.56327 -2.49565 -7.82875
upperneck 16.3644 -3.11159 7.9409
head 6.27562 -1.13533 3.63874
rclavicle 3.37934e-015 5.725e-014
rhumerus -52.0225 -10.8231 -22.7119
rradius 38.364
rwrist 18.7625
rhand -3.17083 -54.8788
rfingers 7.12502
rthumb 22.55 -83.5819
lclavicle 3.37934e-015 5.725e-014
lhumerus -4.00409 -9.83216 60.7083
lradius 47.4943
lwrist -3.85533
lhand 0.338251 -26.0884
lfingers 7.12502
lthumb 25.9143 2.16545
rfemur -29.0174 11.2094 19.352
rtibia 38.0951
rfoot -15.6464 -25.5917
rtoes -7.97733
lfemur 18.4408 -22.099 -34.1553
ltibia 15.1123
lfoot -24.3586 17.7046
ltoes -34.7201
